<svg xmlns="http://www.w3.org/2000/svg" xmlns:xlink="http://www.w3.org/1999/xlink" viewBox="0 0 200 230">
  <path fill="#FFF" d="M98.552 210.825c-16.198-1.64-30.295-10.6-38.79-24.654-1.318-2.177-1.662-2.555-3.044-3.336-9.79-5.533-14.775-12.24-14.302-19.24.18-2.688.917-4.696 2.726-7.442 2.812-4.265 8.168-8.242 15.178-11.27 8.068-3.485 18.295-5.922 29.898-7.126 4.36-.453 20.183-.452 24.606.002 10.458 1.07 17.914 2.59 26.187 5.332 9.94 3.294 17.69 7.875 21.842 12.91 7.07 8.572 4.968 18.167-5.58 25.46-2.203 1.524-6.67 3.915-9.15 4.9-1.56.618-1.875.87-2.755 2.202-1.724 2.61-3.338 4.602-5.8 7.154-7.61 7.896-17.264 12.887-28.45 14.712-3.156.515-9.443.713-12.565.397zm15.213-7.412c3.79-.924 5.268-1.458 8.6-3.106 6.232-3.08 12.157-7.937 16.103-13.195 4.495-5.99 8.365-17.245 8.37-24.344v-1.102l-3.373-.798c-7.296-1.725-15.507-3.065-24.01-3.92-5-.5-20.286-.66-25.335-.262l-2.844.224v1.107c0 2.972 1.357 11.668 2.81 17.992 3.092 13.48 7.047 23.484 10.79 27.296l1.35 1.375 2.116-.23c1.164-.127 3.604-.593 5.423-1.037zm-52.45-40.438c5-3.388 13.624-6.117 24.063-7.615l3.31-.475-.157-1.328c-.086-.73-.238-3.977-.335-7.215l-.178-5.887-.686.003c-2.03.008-11.38 1.767-15.633 2.94-2.487.687-7.04 2.21-8.586 2.873-1.11.477-1.198.594-1.707 2.305-.762 2.564-1.265 5.115-1.593 8.076-.293 2.65-.388 7.353-.15 7.353.076 0 .82-.462 1.655-1.028zm85.523-4.33c-.003-2.714-1.738-11.054-2.442-11.742-1.077-1.053-12.845-4.336-19.65-5.482-8.435-1.42-11.155-1.618-22.358-1.622-5.748-.002-10.797.092-11.22.21l-.77.214.174 6.665c.185 7.09.285 7.972.88 7.744.202-.077 3.342-.286 6.978-.464 14.438-.706 32.363 1.085 46.556 4.65.8.202 1.545.38 1.654.395.11.018.198-.237.198-.565zm2.11-15.146c-5.505-2.48-14.37-5.156-21.82-6.585-20.467-3.924-40.496-3.11-58.87 2.394-2.706.81-9.058 3.286-11.206 4.37-.852.428-1.604.723-1.67.656-.438-.436 4.188-9.976 5.973-12.323l.485-.637.78.555c1.746 1.244 4.602 1.395 6.63.352 3.55-1.826 4.647-6.174 2.436-9.66l-.772-1.218 1.516-1.203c6.407-5.085 15.212-8.754 24.138-10.055 4.26-.62 12.418-.423 16.536.403 15.738 3.154 28.925 13.267 35.722 27.394 1.153 2.395 2.933 6.82 2.703 6.72l-2.583-1.163zm-3.234-3.574c.34 0 .366-.07.12-.317-.176-.176-.32-.516-.32-.757 0-.317-.218-.43-.792-.41-.436.015-.793.167-.793.337-.002.17-.074.497-.163.728-.102.267-.017.418.237.418.218 0 .477.208.575.463.17.44.19.44.437 0 .143-.256.457-.464.697-.464zM63.23 139c.138-.364.433-.66.655-.66.222 0 .403-.12.403-.266 0-.145-.124-.265-.277-.265-.15 0-.433-.373-.624-.828-.21-.498-.42-.708-.532-.53-.1.165-.543.3-.98.3-.67 0-.77.08-.63.518.09.286.033.762-.125 1.06-.255.472-.212.538.35.538.35 0 .785.178.966.397.44.528.5.508.794-.265zm7.496-2.514c.17 0 .322-.358.337-.794.022-.606-.087-.793-.463-.793-.27 0-.49-.12-.49-.266 0-.145-.12-.264-.265-.264-.146 0-.265.166-.265.368 0 .203-.183.44-.406.525-.36.138-.356.233.04.835.262.4.6.62.824.534.208-.08.518-.146.688-.146zm55.613-1.312c.264.428.655.283.655-.243 0-.272.19-.652.42-.844.377-.313.363-.37-.14-.555-.306-.113-.656-.472-.776-.798l-.22-.59-.314.584c-.172.322-.56.586-.865.586-.458 0-.496.066-.225.393.186.224.255.677.16 1.053-.153.612-.117.642.49.41.417-.157.715-.155.814.006zm14.32-1.43c1.52-1.31.515-3.872-1.52-3.872-1.126 0-2.09 1.04-2.09 2.25 0 1.97 2.104 2.915 3.61 1.62zm-8.456-.4c.22-.35.513-.456 1-.364.657.126.674.1.372-.56-.264-.582-.24-.776.147-1.204.445-.492.435-.514-.29-.597-.543-.063-.773-.25-.834-.682-.108-.75-.487-.77-.72-.038-.143.45-.322.527-.943.403-.85-.17-.896-.107-.482.667.224.418.187.643-.173 1.04-.44.488-.432.508.238.508.524 0 .74.165.864.66.198.79.404.833.82.167zm-54.525-.396c.015-.018.11-.37.208-.783.122-.51.088-.693-.107-.573-.157.098-.45.04-.653-.127-.285-.237-.48-.193-.87.195-.46.46-.466.546-.082 1.063.28.378.59.513.946.41.292-.083.543-.167.56-.185zm6.94-.31c.27-.6.41-.654 1.258-.495l.953.18-.396-.76c-.365-.695-.355-.817.124-1.49l.52-.73h-.81c-.665 0-.877-.156-1.173-.86l-.362-.86-.352.747c-.31.662-.452.73-1.225.584-.982-.184-.996-.166-.567.776.267.586.226.764-.31 1.335l-.62.66h.98c.875 0 .995.083 1.137.793.194.97.44 1.006.844.12zm26.764-1.818c0-1.05.094-1.227.926-1.742.51-.315.926-.662.926-.773 0-.11-.48-.36-1.065-.552-.942-.31-1.1-.485-1.354-1.498-.16-.63-.363-1.142-.455-1.138-.09.004-.464.425-.828.937-.634.89-.713.923-1.918.777-.69-.083-1.257-.07-1.257.03 0 .102.312.592.693 1.092.68.892.685.927.267 1.99-.234.595-.378 1.13-.32 1.186.056.057.58-.04 1.165-.215.99-.297 1.124-.27 1.944.376.485.38.97.694 1.08.696.11.002.198-.523.198-1.166zm-19.638.492c1.07-.75.51-2.498-.8-2.498-.706 0-1.522.73-1.522 1.364 0 .558.892 1.546 1.396 1.546.186 0 .603-.185.926-.412zm33.03-1.326c.787-.485 1.587-1.288 2.08-2.085.695-1.124.8-1.54.8-3.187 0-1.646-.105-2.063-.8-3.19-2.62-4.234-8.798-3.932-10.877.533-2.007 4.31 1.177 9.067 5.893 8.81 1.242-.068 1.928-.276 2.904-.88zm-24.41-.246c.098-.25.503-.397 1.103-.397.914 0 .934-.02.555-.56-.284-.408-.325-.74-.147-1.21.324-.85.343-.82-.425-.674-.42.08-.865-.05-1.19-.344-.482-.435-.52-.437-.52-.02 0 .247-.296.745-.658 1.107l-.657.657.657.3c.428.194.658.515.658.918 0 .692.39.83.624.222zm-9.222-3.837c.324.27.396.253.396-.087 0-.228.21-.533.464-.677.37-.21.397-.33.132-.596-.182-.184-.33-.563-.33-.843 0-.42-.068-.45-.398-.178-.316.263-.477.263-.794 0-.324-.27-.396-.253-.396.087 0 .228-.21.547-.463.708-.332.21-.37.332-.133.432.182.076.33.44.33.81 0 .568.063.62.398.343.316-.263.477-.263.794 0zm43.825-2.485l.624-.18-.596-.42c-.384-.27-.595-.69-.595-1.187 0-.747-.015-.756-.633-.35-.382.25-.89.35-1.278.252-.586-.147-.643-.082-.637.716.003.482-.09 1.085-.207 1.34-.175.383-.08.463.546.463.492 0 .885.203 1.118.576.358.573.36.572.696-.226.187-.443.616-.882.96-.982zm-53.748.485c0-.21.178-.38.397-.38.217 0 .395-.124.395-.274 0-.15-.178-.342-.396-.426-.22-.084-.398-.392-.398-.686 0-.443-.067-.477-.396-.205-.217.18-.646.263-.952.183-.462-.12-.532-.05-.412.408.08.305.028.773-.115 1.04-.22.412-.16.487.395.487.36 0 .73.122.82.27.218.35.66.072.66-.417zm19.843-2.09c0-.834.08-.928.927-1.087 1.125-.21 1.155-.394.16-.982-.697-.412-.748-.537-.558-1.38.24-1.066.242-1.066-.833-.51-.76.394-.84.386-1.392-.132-.804-.755-.948-.697-.948.383 0 .824-.092.95-.794 1.09-.976.196-1.014.534-.107.947.613.28.668.42.525 1.317-.178 1.112-.034 1.207.87.574.578-.404.648-.397 1.177.132.778.778.973.708.973-.352zm7.67-2.26c.313-.3.348-.535.146-.97-.145-.314-.362-.513-.48-.44-.117.073-.387-.01-.6-.187-.31-.257-.385-.238-.385.096 0 .23-.208.538-.463.686-.257.15-.315.274-.132.278.182.004.33.226.33.492 0 .597.984.625 1.586.045zm-20.89-2.91c.612 0 .697-.478.124-.698-.228-.087-.398-.482-.398-.918 0-.772-.345-1.013-.678-.474-.105.17-.512.225-.97.133-.728-.146-.778-.11-.632.472.1.4.013.75-.236.958-.582.482-.48.79.257.79.4 0 .772.225.96.577l.31.576.37-.71c.21-.4.596-.707.892-.707zm29.095-1.163c0-.348.18-.7.397-.785.518-.2.513-.698-.007-.698-.222 0-.528-.327-.68-.728-.256-.67-.306-.69-.62-.265-.186.254-.657.463-1.047.463-.654 0-.683.045-.38.595.18.328.296.848.26 1.157-.057.464.043.54.576.438.354-.068.725.007.823.166.31.5.677.315.677-.344zm-19.032-.963c.58-.31.697-1.552.194-2.055-.505-.505-1.468-.37-1.916.27-.53.758-.52.893.117 1.53.6.6.878.644 1.605.255zm73.613 29.123c-1.323-.808-2.005-2.404-1.878-4.4.102-1.598.198-1.792 2.772-5.578 3.21-4.722 4.26-6.676 3.756-6.988-.2-.124-.518-.073-.75.12-.222.184-2.39 2.083-4.818 4.22-2.427 2.137-4.47 3.885-4.536 3.885-.195 0-1.765-2.53-1.765-2.844 0-.52 10.516-9.518 11.298-9.667 1.104-.212 2.328.424 3.24 1.68.698.965.81 1.347.81 2.78 0 2.03-.89 3.885-3.785 7.904-1.053 1.462-2.12 2.982-2.373 3.377-.56.88-.596 1.796-.07 1.796.215 0 2.482-1.845 5.04-4.1 2.558-2.257 4.735-4.1 4.837-4.094.212.01 2.01 2.9 1.867 3.004-.05.037-1.582 1.375-3.4 2.974-7.446 6.544-7.324 6.45-8.4 6.448-.546 0-1.375-.234-1.843-.518zm-137.947-6.538c-2.42-2.875-2.887-3.777-2.887-5.592 0-1.9.39-2.63 3.043-5.686 1.236-1.427 2.248-2.8 2.248-3.05 0-.76-.78-1.633-1.457-1.633-.484 0-1.455.933-4.13 3.965l-3.496 3.965-.948-1.095c-1.444-1.668-1.456-1.72-.633-2.712 2.48-2.99 6.695-7.576 7.447-8.102 1.865-1.305 4.52-.56 6.018 1.688 1.604 2.406 1.44 5.17-.445 7.45-.568.688-1.032 1.306-1.032 1.374 0 .13 5.476-2.737 5.99-3.138.202-.156.754.277 1.65 1.295.743.84 1.35 1.588 1.35 1.66 0 .073-2.38 1.367-5.285 2.875l-5.284 2.74.674.83c.37.458.977 1.22 1.35 1.692l.68.86-1.244 1.455c-.684.8-1.34 1.455-1.46 1.455-.117 0-1.084-1.033-2.147-2.295zm126.2-9.234c-3.904-4.31-4.38-5.33-3.64-7.796.414-1.38 2.025-3.42 3.167-4.007.717-.37 1.03-.755 1.272-1.56.425-1.42 2.495-3.547 3.795-3.9 1.874-.51 2.53-.097 6.134 3.847 3.606 3.95 3.498 3.64 1.916 5.46l-.887 1.02-1.327-1.416c-.73-.78-2.03-2.216-2.887-3.19-1.01-1.147-1.765-1.778-2.14-1.787-.656-.016-1.406.893-1.4 1.7 0 .307 1.244 1.912 2.926 3.775l2.924 3.24-1.116 1.324c-.615.727-1.206 1.323-1.315 1.323-.11 0-1.486-1.43-3.06-3.175-1.573-1.746-2.992-3.175-3.153-3.175-.357 0-1.305 1.022-1.524 1.643-.17.48.554 1.423 3.96 5.158l1.892 2.08-1.1 1.366c-.605.752-1.173 1.374-1.263 1.38-.09.01-1.52-1.482-3.175-3.312zm-110.485-4.144c-.14-.184-.815-1.305-1.5-2.49l-1.246-2.158-4.95-2.124c-2.725-1.17-4.953-2.24-4.953-2.378 0-.14.666-.803 1.482-1.474l1.482-1.22 2.842 1.19c1.563.656 3.01 1.192 3.214 1.192.303 0 .372-.73.372-3.928v-3.927l1.654-1.398 1.653-1.4.132 6.715.132 6.715 1.257 2.17c.692 1.194 1.258 2.272 1.258 2.396 0 .216-1.262 1.468-2.148 2.13-.337.253-.482.25-.682-.012zm98.947-6.806c-1.714-1.304-3.464-2.654-3.888-3l-.77-.63.856-1.497c.47-.823.937-1.495 1.036-1.492.097.003 1.63 1.134 3.406 2.513 1.775 1.38 3.404 2.51 3.62 2.51.557 0 1.524-1.325 1.432-1.963-.048-.327-1.304-1.487-3.2-2.952-1.717-1.327-3.24-2.532-3.386-2.678-.176-.176.058-.806.704-1.89l.968-1.624.698.498c.384.274 1.94 1.464 3.456 2.644 1.517 1.18 2.857 2.145 2.977 2.145.583 0 1.304-1.132 1.226-1.926-.07-.72-.512-1.17-3.172-3.225-1.7-1.316-3.17-2.474-3.27-2.574-.217-.223 1.407-3.125 1.75-3.125.278 0 5.762 4.186 7.04 5.373 2.142 1.99 1.58 5.994-1.18 8.417-.694.608-1.078 1.236-1.308 2.13-.676 2.645-2.838 4.72-4.917 4.72-.802 0-1.478-.395-4.078-2.372zm-92.287.715c-.066-.18-1.085-3.186-2.263-6.68-2.387-7.07-2.482-7.828-1.188-9.525.836-1.096 2.443-1.983 3.592-1.983 1.816 0 3.188 1.308 6.18 5.896 2.187 3.354 2.768 3.984 3.346 3.627.328-.203.13-1.02-1.263-5.22-.91-2.738-1.652-5.376-1.652-5.86 0-2.036 2.258-4.263 4.322-4.263 1.703 0 2.572.784 5.356 4.833 1.424 2.07 3.225 4.68 4 5.795l1.41 2.03-1.46.836c-.804.46-1.57.796-1.7.748-.13-.048-1.366-1.783-2.748-3.855-3.67-5.502-5.058-7.042-5.585-6.19-.077.126.57 2.355 1.44 4.953 1.636 4.89 1.85 6.23 1.197 7.494-.5.966-2.09 2.354-2.945 2.568-1.012.254-2.73-.055-3.33-.6-.294-.264-1.43-1.792-2.526-3.394-3.294-4.818-4.35-5.948-4.833-5.168-.12.196.643 2.882 1.84 6.463l2.046 6.128-1.558.85c-1.092.595-1.593.75-1.677.52zm80.098-8.234c-2.08-1.063-3.9-2.052-4.045-2.198-.176-.176-.03-.805.44-1.892l.707-1.627 3.606 1.85c1.983 1.017 3.807 1.85 4.053 1.85.55 0 1.27-.983 1.27-1.738 0-.805-.527-1.182-4.233-3.027-1.82-.905-3.34-1.675-3.38-1.71-.167-.148 1.545-3.617 1.745-3.536.12.05 1.853.922 3.85 1.94l3.63 1.853.65-.743c.765-.875.823-1.534.185-2.098-.254-.225-1.912-1.133-3.683-2.017-1.77-.884-3.287-1.716-3.368-1.847-.082-.132.163-.96.544-1.844l.693-1.605 4.17 2.09c4.7 2.354 5.232 2.852 5.466 5.12.192 1.862-.48 3.888-1.763 5.305-.762.842-.988 1.324-1.032 2.196-.144 2.892-2.492 5.642-4.797 5.62-.616-.007-2.192-.656-4.707-1.94zM77.69 98.85c-.547-4.257-1.055-8.097-1.13-8.533l-.133-.794 4.316-1.135c5.11-1.344 5.626-1.3 7.334.64 1.5 1.704 2.178 3.66 2.34 6.73.15 2.872-.29 4.885-1.442 6.628-.96 1.45-1.844 1.9-5.9 2.993-1.966.53-3.756 1.018-3.98 1.086-.346.104-.56-1.056-1.404-7.616zm6.66 2.29c1.292-.365 1.457-.502 1.953-1.623 1.04-2.352.466-6.56-1.06-7.76-.755-.594-1.245-.574-3.69.152l-1.296.384.607 4.567c.333 2.514.61 4.67.614 4.796.01.24.552.14 2.873-.516zm40 3.888c-2.738-.968-4.594-3.94-4.11-6.582.168-.92 3.292-12.03 3.418-12.156.05-.05 2.792.743 3.015.87.04.024-.642 2.567-1.52 5.65-1.513 5.33-1.573 5.652-1.214 6.512.702 1.683 3.198 2.533 4.585 1.562.883-.618 1.207-1.417 2.575-6.334 1.75-6.296 1.41-5.72 3.09-5.234.77.223 1.44.438 1.485.476.045.04-.697 2.77-1.65 6.067-1.943 6.722-2.552 7.925-4.48 8.86-1.702.823-3.45.927-5.196.308zm-10.104-2.283c-1.7-.185-3.494-.47-3.987-.633-1.03-.34-2.305-1.586-2.998-2.932-.68-1.324-.643-4.812.105-9.657.864-5.59.594-5.043 2.44-4.937 1.162.066 1.577.19 1.577.473 0 .21-.31 2.433-.688 4.937-.794 5.247-.675 6.687.658 7.964.676.65 1.038.74 3.96 1.016 3.62.34 3.364.107 3.043 2.784-.127 1.053-.27 1.38-.593 1.356-.235-.018-1.818-.185-3.518-.37zM92.07 94.277c0-6.654.075-8.63.33-8.71.182-.058.952-.156 1.71-.218l1.38-.113.075 2.072.077 2.07 4.612-2.508c2.537-1.38 4.65-2.508 4.697-2.508.047 0 .084.927.084 2.06v2.06l-4.498 2.596c-2.474 1.426-4.498 2.748-4.498 2.937 0 .188 1.22.854 2.712 1.478 1.492.625 3.486 1.462 4.432 1.86l1.72.724.077 2.005c.05 1.325-.022 2.006-.214 2.006-.16 0-2.21-.714-4.56-1.587-2.348-.873-4.353-1.587-4.456-1.587-.103 0-.27.822-.37 1.827-.203 2.017-.326 2.13-2.318 2.138l-.992.005z"/>
</svg>
